<svg width="294" height="80" viewBox="0 0 294 80" fill="none" xmlns="http://www.w3.org/2000/svg">
<rect width="294" height="80" rx="12" fill="white"/>
<path d="M120.825 54.444V52.14H122.193C122.721 52.14 123.105 52.068 123.345 51.924C123.601 51.78 123.833 51.436 124.041 50.892L124.569 49.428L119.505 36.132H122.385L125.961 46.236L129.249 36.132H132.105L126.537 51.612C126.153 52.684 125.697 53.42 125.169 53.82C124.641 54.236 123.897 54.444 122.937 54.444H120.825ZM140.232 49.764C138.936 49.764 137.776 49.468 136.752 48.876C135.744 48.284 134.952 47.46 134.376 46.404C133.816 45.332 133.536 44.116 133.536 42.756C133.536 41.428 133.816 40.244 134.376 39.204C134.952 38.164 135.744 37.348 136.752 36.756C137.776 36.164 138.936 35.868 140.232 35.868C141.528 35.868 142.68 36.164 143.688 36.756C144.712 37.348 145.504 38.164 146.064 39.204C146.64 40.244 146.928 41.428 146.928 42.756C146.928 44.1 146.648 45.308 146.088 46.38C145.528 47.436 144.736 48.268 143.712 48.876C142.704 49.468 141.544 49.764 140.232 49.764ZM140.232 47.46C141 47.46 141.688 47.26 142.296 46.86C142.904 46.46 143.376 45.9 143.712 45.18C144.064 44.46 144.24 43.652 144.24 42.756C144.24 41.892 144.064 41.116 143.712 40.428C143.376 39.724 142.904 39.172 142.296 38.772C141.688 38.372 141 38.172 140.232 38.172C139.464 38.172 138.776 38.372 138.168 38.772C137.56 39.156 137.08 39.7 136.728 40.404C136.392 41.092 136.224 41.876 136.224 42.756C136.224 43.668 136.392 44.484 136.728 45.204C137.08 45.908 137.56 46.46 138.168 46.86C138.776 47.26 139.464 47.46 140.232 47.46ZM154.141 49.764C152.189 49.764 150.837 49.036 150.085 47.58C149.877 47.164 149.725 46.684 149.629 46.14C149.549 45.596 149.509 44.884 149.509 44.004V36.132H152.149V44.028C152.149 45.388 152.381 46.332 152.845 46.86C153.261 47.308 153.885 47.532 154.717 47.532C155.677 47.532 156.421 47.228 156.949 46.62C157.301 46.236 157.557 45.716 157.717 45.06C157.877 44.404 157.957 43.516 157.957 42.396V36.132H160.597V49.5H157.957V47.604C157.381 48.372 156.789 48.924 156.181 49.26C155.589 49.596 154.909 49.764 154.141 49.764ZM166.941 43.308C166.941 42.412 167.061 41.668 167.301 41.076C167.541 40.468 167.829 39.996 168.165 39.66C168.517 39.324 168.965 38.956 169.509 38.556C170.133 38.108 170.589 37.7 170.877 37.332C171.181 36.948 171.333 36.42 171.333 35.748C171.333 34.9 171.053 34.252 170.493 33.804C169.949 33.34 169.213 33.108 168.285 33.108C167.277 33.108 166.477 33.396 165.885 33.972C165.309 34.548 164.981 35.356 164.901 36.396H162.501C162.597 34.7 163.165 33.364 164.205 32.388C165.261 31.412 166.605 30.924 168.237 30.924C169.853 30.924 171.181 31.356 172.221 32.22C173.261 33.068 173.781 34.292 173.781 35.892C173.781 36.58 173.677 37.164 173.469 37.644C173.277 38.124 173.037 38.516 172.749 38.82C172.461 39.108 172.069 39.436 171.573 39.804C171.109 40.156 170.741 40.468 170.469 40.74C170.197 41.012 169.957 41.364 169.749 41.796C169.557 42.212 169.445 42.724 169.413 43.332L169.341 44.172H166.941V43.308ZM168.117 49.764C167.669 49.764 167.277 49.596 166.941 49.26C166.605 48.924 166.437 48.524 166.437 48.06C166.437 47.612 166.597 47.228 166.917 46.908C167.253 46.588 167.653 46.428 168.117 46.428C168.581 46.428 168.973 46.588 169.293 46.908C169.613 47.228 169.773 47.612 169.773 48.06C169.773 48.54 169.613 48.948 169.293 49.284C168.973 49.604 168.581 49.764 168.117 49.764Z" fill="#2A2D34"/>
</svg>
