<svg width="24" height="24" viewBox="0 0 24 24" fill="none" xmlns="http://www.w3.org/2000/svg">
<path d="M10.4722 10.9815L10.2456 11.904C10.0513 12.6949 10.1414 13.5304 10.4997 14.2596C10.8244 14.9205 11.3511 15.4564 12.0006 15.7869L16.7924 18.2248C17.1481 18.4058 17.5404 18.5 17.9381 18.5C19.353 18.5 20.5 17.3329 20.5 15.8932V15.1052C20.5 14.5145 20.3485 13.9339 20.0604 13.421L16.2778 6.68519V4L13.1111 5.61111C5.72222 1.85185 1.5 12.0556 1.5 18.5" stroke="#373A41" stroke-linecap="round" stroke-linejoin="round"/>
<path d="M13.5 20.5C13.5 18.5 12.4312 16.8036 12 16" stroke="#373A41" stroke-linecap="round" stroke-linejoin="round"/>
<path d="M17.1328 7.24902L18.4992 9.74902L22.8929 4.80289C23.2281 4.36584 22.7062 3.79493 22.2247 4.07192L17.1328 7.24902Z" fill="#373A41"/>
</svg>
