<svg width="24" height="24" viewBox="0 0 24 24" fill="none" xmlns="http://www.w3.org/2000/svg">
<path d="M5.08111 4.84517L8.43393 2.74966C8.68687 2.59157 8.99718 2.55465 9.28016 2.64898L11.6838 3.45018C11.889 3.5186 12.111 3.5186 12.3162 3.45018L14.7198 2.64898C15.0028 2.55465 15.3131 2.59157 15.5661 2.74966L18.9189 4.84517C19.2113 5.02791 19.3889 5.34838 19.3889 5.69317V7.27781C19.3889 7.59257 19.5371 7.88896 19.7889 8.07781L21.1 9.06115C21.3518 9.25 21.5 9.54639 21.5 9.86115V13.0834C21.5 13.3981 21.3518 13.6945 21.1 13.8834L19.7889 14.8667C19.5371 15.0556 19.3889 15.3519 19.3889 15.6667V18.3069C19.3889 18.6517 19.2113 18.9722 18.9189 19.1549L15.5661 21.2504C15.3131 21.4085 15.0028 21.4454 14.7198 21.3511L12.3162 20.5499C12.111 20.4815 11.889 20.4815 11.6838 20.5499L9.28016 21.3511C8.99718 21.4454 8.68687 21.4085 8.43393 21.2504L5.08111 19.1549C4.78873 18.9722 4.61111 18.6517 4.61111 18.3069V15.6667C4.61111 15.3519 4.46292 15.0556 4.21111 14.8667L2.9 13.8834C2.64819 13.6945 2.5 13.3981 2.5 13.0834V9.86115C2.5 9.54639 2.64819 9.25 2.9 9.06115L4.21111 8.07781C4.46292 7.88896 4.61111 7.59257 4.61111 7.27781V5.69317C4.61111 5.34838 4.78873 5.02791 5.08111 4.84517Z" stroke="#373A41" stroke-linecap="round" stroke-linejoin="round"/>
<path d="M12 4V7.58579C12 7.851 12.1054 8.10536 12.2929 8.29289L13.75 9.75M12 20V16.4142C12 16.149 11.8946 15.8946 11.7071 15.7071L10.25 14.25" stroke="#373A41" stroke-linecap="round" stroke-linejoin="round"/>
<circle cx="9" cy="13" r="1.5" stroke="#373A41" stroke-linecap="round" stroke-linejoin="round"/>
<circle cx="15" cy="11" r="1.5" stroke="#373A41" stroke-linecap="round" stroke-linejoin="round"/>
</svg>
