<svg width="24" height="24" viewBox="0 0 24 24" fill="none" xmlns="http://www.w3.org/2000/svg">
<path d="M1.5 19.5H7.67546C9.30717 19.5 10.6708 18.2661 10.8231 16.6519L10.986 14.926C11.1594 13.0879 9.85792 12 8 12C7.06713 12 6.58491 10.5 5.49294 10.5C4.43319 10.5 3.80643 11.6522 3.28075 12.5445C3.11103 12.8326 2.79938 13 2.46502 13H1.5M22.5 19.5H16.3245C14.6928 19.5 13.3292 18.2661 13.1769 16.6519L13.014 14.926C12.8406 13.0879 14.1421 12 16 12C16.9329 12 17.4151 10.5 18.5071 10.5C19.5668 10.5 20.1936 11.6522 20.7193 12.5445C20.889 12.8326 21.2006 13 21.535 13H22.5M12 3.5V6M6.53631 5.48862L8.14327 7.40373M17.4625 5.48853L15.8556 7.40364" stroke="#373A41" stroke-linecap="round" stroke-linejoin="round"/>
</svg>
