<svg width="24" height="24" viewBox="0 0 24 24" fill="none" xmlns="http://www.w3.org/2000/svg">
<circle cx="4.75" cy="19.25" r="2.25" stroke="#373A41" stroke-linejoin="round"/>
<path d="M15.6373 3.91575C15.9466 4.3765 16.4966 4.6844 17.0509 4.65849C17.1169 4.65541 17.1833 4.65385 17.25 4.65385C19.5972 4.65385 21.5 6.58247 21.5 8.96154C21.5 10.5728 20.6273 11.9774 19.3348 12.7162C19.1238 12.8369 18.9489 13.0134 18.8308 13.2259C18.1023 14.5373 16.7157 15.4231 15.125 15.4231C14.6462 15.4231 14.1858 15.3428 13.7563 15.1948C13.1669 14.9917 12.452 15.1861 12.0018 15.6174C11.4307 16.1645 10.6603 16.5 9.8125 16.5C8.05209 16.5 6.625 15.0535 6.625 13.2692C6.625 12.9376 6.47464 12.6158 6.21015 12.4157C5.1721 11.6303 4.5 10.3755 4.5 8.96154C4.5 6.58247 6.40279 4.65385 8.75 4.65385C8.81673 4.65385 8.88311 4.65541 8.94909 4.65849C9.50339 4.6844 10.0534 4.37649 10.3627 3.91575C10.9362 3.06123 11.9034 2.5 13 2.5C14.0966 2.5 15.0638 3.06123 15.6373 3.91575Z" stroke="#373A41" stroke-linejoin="round"/>
</svg>
