<svg width="406" height="119" viewBox="0 0 406 119" fill="none" xmlns="http://www.w3.org/2000/svg">
<g clip-path="url(#clip0_395_3269)">
<mask id="mask0_395_3269" style="mask-type:luminance" maskUnits="userSpaceOnUse" x="0" y="0" width="406" height="119">
<path d="M406 0H0V119H406V0Z" fill="white"/>
</mask>
<g mask="url(#mask0_395_3269)">
<mask id="mask1_395_3269" style="mask-type:luminance" maskUnits="userSpaceOnUse" x="0" y="0" width="406" height="119">
<path d="M406 0H0V118.931H406V0Z" fill="white"/>
</mask>
<g mask="url(#mask1_395_3269)">
<path d="M81.7116 59.516L91.1917 50.1179C94.153 47.1847 95.8282 43.1952 95.8485 39.0264C95.8692 34.8578 94.2334 30.8518 91.3013 27.8896C88.3692 24.9274 84.381 23.2517 80.2139 23.2311C76.0467 23.2106 72.0423 24.8468 69.0809 27.78L64.554 32.28C63.982 32.8396 63.6543 33.6027 63.6421 34.4029C63.63 35.2032 63.9345 35.9759 64.4891 36.5526L64.55 36.6136C64.8285 36.9033 65.1614 37.1347 65.5301 37.2944C65.8987 37.4542 66.2954 37.5389 66.6969 37.5438C67.0984 37.5488 67.4971 37.4737 67.8694 37.3231C68.2417 37.1724 68.5803 36.9492 68.8657 36.6664L73.4129 32.1622C74.3049 31.2774 75.3622 30.5769 76.5241 30.1008C77.6865 29.6247 78.9313 29.3823 80.1875 29.3873C81.4432 29.3925 82.686 29.645 83.8443 30.1305C85.003 30.616 86.0546 31.325 86.9388 32.2171C87.8235 33.1091 88.5239 34.1667 88.9997 35.3294C89.4755 36.4922 89.7179 37.7373 89.7126 38.9937C89.7078 40.2502 89.4552 41.4934 88.9701 42.6521C88.4845 43.8109 87.776 44.8628 86.884 45.7478L75.1953 57.3066C74.6163 57.8817 74.2891 58.6631 74.2854 59.4795C74.2818 60.2954 74.6017 61.0797 75.175 61.6605L86.7338 73.3371C88.5036 75.1322 89.4954 77.552 89.4954 80.073C89.4954 82.5939 88.5036 85.0137 86.7338 86.8089C85.8479 87.7064 84.7919 88.4184 83.6279 88.9029C82.4635 89.3875 81.2146 89.6352 79.9536 89.6316C78.6905 89.6336 77.4397 89.3834 76.2748 88.8952C75.1096 88.4066 74.054 87.6906 73.1693 86.7886L63.336 76.8746L61.5862 75.1363C61.3263 74.8723 61.0746 74.6043 60.831 74.324L60.4697 73.9179C60.3519 73.7798 60.2342 73.6417 60.1205 73.5117C59.5485 72.8132 59.0211 72.0793 58.5412 71.3145C58.4234 71.1277 58.3097 70.9449 58.2082 70.7621L57.9768 70.356C57.6926 69.8483 57.4247 69.3285 57.1648 68.8005C54.7008 63.4146 54.4759 57.2701 56.5396 51.7181C56.719 51.2258 56.7661 50.6954 56.6764 50.1796C56.5867 49.6634 56.363 49.1801 56.028 48.7776L55.9752 48.7126C55.6334 48.3 55.1884 47.9848 54.6858 47.7992C54.1832 47.614 53.6403 47.5649 53.1121 47.6566C52.5843 47.7484 52.0902 47.9783 51.6798 48.3227C51.2689 48.6675 50.9567 49.1143 50.7744 49.6183C49.0716 54.2138 48.5856 59.172 49.3631 64.0108C50.1406 68.85 52.1552 73.4057 55.212 77.2361L55.4677 77.5488C55.5936 77.7031 55.7276 77.8615 55.8737 78.0199C56.1985 78.3976 56.5518 78.7835 56.9212 79.1693C57.0105 79.2668 57.1039 79.3643 57.2014 79.4617L62.2967 84.6157L68.7561 91.1384C70.2124 92.6171 71.9489 93.7905 73.864 94.5894C75.7787 95.3886 77.8339 95.7976 79.9089 95.7928C81.9804 95.7988 84.0327 95.3923 85.9454 94.5967C87.858 93.801 89.5933 92.6321 91.0496 91.1587C93.9614 88.2117 95.5968 84.2364 95.6021 80.0929C95.6073 75.9494 93.9821 71.9704 91.078 69.0157L81.7116 59.516Z" fill="#2A2D34"/>
<path d="M57.1851 68.7842C57.4246 69.3122 57.6926 69.832 57.9971 70.3397L57.1526 68.902L57.1851 68.7842Z" fill="#2A2D34"/>
<path d="M66.0725 45.1954C64.8168 43.0319 63.2809 41.0434 61.505 39.282L56.5721 34.4082L49.8366 27.7191C46.8841 24.8124 42.9066 23.1854 38.7641 23.19C34.6216 23.1945 30.6476 24.8303 27.7015 27.7435C26.226 29.2049 25.0547 30.9444 24.2554 32.8615C23.456 34.7786 23.0444 36.8351 23.0444 38.9123C23.0444 40.9893 23.456 43.0461 24.2554 44.9631C25.0547 46.8801 26.226 48.6196 27.7015 50.0814L37.1897 59.4753L27.8152 68.9507C24.9078 71.9001 23.2778 75.8759 23.2778 80.0182C23.2778 84.1604 24.9078 88.1362 27.8152 91.0856C29.2726 92.5644 31.0106 93.7365 32.9272 94.5337C34.8439 95.331 36.9004 95.7367 38.9761 95.7278C41.0511 95.7315 43.1059 95.3208 45.0202 94.5203C46.9345 93.7198 48.6701 92.5453 50.1248 91.0653L54.4406 86.7073C54.996 86.1456 55.3099 85.3897 55.316 84.5998C55.322 83.8102 55.0196 83.0492 54.4731 82.4794L54.4163 82.4143C54.1361 82.1223 53.7999 81.8892 53.4281 81.7288C53.0562 81.5687 52.6558 81.4847 52.2511 81.4814C51.8463 81.4786 51.4447 81.5566 51.0704 81.7114C50.6965 81.8657 50.3567 82.0939 50.0721 82.3818L45.7603 86.7398C44.8744 87.6414 43.818 88.3571 42.6524 88.8453C41.4868 89.3335 40.2357 89.5841 38.9721 89.5829C37.0848 89.5833 35.2397 89.0252 33.669 87.9786C32.0984 86.932 30.8725 85.4434 30.1458 83.7011C29.419 81.9591 29.224 80.0405 29.5852 78.1873C29.9464 76.3345 30.8478 74.6298 32.1756 73.2883L43.7344 61.6077C44.0186 61.3206 44.2431 60.9802 44.3958 60.6062C44.5484 60.2321 44.6256 59.8315 44.6235 59.4278C44.6211 59.0237 44.5391 58.6242 44.3828 58.2517C44.2261 57.8797 43.9975 57.5418 43.71 57.2579L32.0741 45.6869C31.1775 44.7978 30.4658 43.7402 29.9802 42.5746C29.4945 41.409 29.2444 40.1588 29.2444 38.8961C29.2444 37.6333 29.4945 36.3832 29.9802 35.2176C30.4658 34.0521 31.1775 32.9943 32.0741 32.1054C33.8692 30.335 36.2888 29.3425 38.8097 29.3425C41.3305 29.3425 43.7502 30.335 45.5452 32.1054L52.3578 38.8554L57.2298 43.6683C60.2712 46.6775 62.3779 50.5021 63.2963 54.6817C64.2151 58.861 63.9057 63.2168 62.4063 67.2247C62.2249 67.7267 62.1778 68.2676 62.2703 68.7936C62.3633 69.3195 62.5919 69.8122 62.9341 70.222L62.9869 70.287C63.3259 70.6984 63.7681 71.0132 64.2678 71.1992C64.7676 71.3848 65.3076 71.4351 65.8334 71.3445C66.3587 71.2543 66.8512 71.0269 67.2605 70.6849C67.6693 70.3429 67.9811 69.8986 68.1634 69.3974C69.6201 65.4586 70.1881 61.2462 69.8264 57.062C69.4651 52.878 68.1833 48.826 66.0725 45.1954Z" fill="#2A2D34"/>
<path d="M59.4587 118.931C45.7127 118.922 32.3956 114.145 21.7755 105.415C11.1554 96.6844 3.8896 84.5412 1.21596 71.0531C-1.45769 57.5651 0.626224 43.567 7.11265 31.4435C13.5991 19.3201 24.0867 9.82138 36.7889 4.56568C49.491 -0.689982 63.6218 -1.37751 76.7738 2.62023C89.9261 6.61797 101.286 15.0537 108.918 26.4902C116.55 37.9267 119.981 51.6565 118.629 65.3403C117.276 79.0241 111.223 91.816 101.5 101.536C95.9828 107.062 89.4288 111.444 82.2142 114.429C74.9995 117.414 67.2661 118.944 59.4587 118.931ZM59.4587 6.15301C47.1244 6.15204 35.1717 10.4294 25.6367 18.2562C16.1017 26.083 9.57463 36.975 7.16766 49.0763C4.76065 61.1774 6.62265 73.7394 12.4364 84.6212C18.2501 95.503 27.6558 104.032 39.0509 108.754C50.4459 113.476 63.1253 114.1 74.9285 110.518C86.7317 106.937 96.9284 99.3727 103.781 89.1135C110.634 78.8547 113.719 66.536 112.51 54.2571C111.301 41.9777 105.873 30.4979 97.1517 21.7733C92.2135 16.8058 86.3391 12.8675 79.8691 10.1863C73.3991 7.50507 66.4618 6.13421 59.4587 6.15301Z" fill="#2A2D34"/>
<path d="M147.069 88.2267H137.809L160.061 59.1428L138.702 30.7127H147.719L164.694 53.1562L181.669 30.7046H190.682L169.404 59.1347L191.575 88.2186H182.4L164.694 65.2106L147.069 88.2267Z" fill="#2A2D34"/>
<path d="M218.984 89.197C210.699 89.197 203.662 86.3215 197.872 80.5705C192.083 74.8195 189.187 67.7798 189.184 59.451C189.184 51.1332 192.08 44.0935 197.872 38.3316C203.665 32.5698 210.702 29.6943 218.984 29.7051C227.318 29.7051 234.37 32.5806 240.141 38.3316C245.912 44.0826 248.794 51.1223 248.789 59.451C248.789 67.7689 245.906 74.8085 240.141 80.5705C234.376 86.3325 227.323 89.2079 218.984 89.197ZM218.984 82.0692C225.318 82.0692 230.61 79.8813 234.859 75.5059C239.108 71.1305 241.235 65.784 241.237 59.4673C241.237 53.1477 239.111 47.8 234.859 43.4246C230.607 39.0491 225.315 36.8614 218.984 36.8614C212.699 36.8614 207.434 39.0491 203.187 43.4246C198.94 47.8 196.814 53.1477 196.809 59.4673C196.809 65.784 198.935 71.1305 203.187 75.5059C207.439 79.8813 212.705 82.0692 218.984 82.0692Z" fill="#2A2D34"/>
<path d="M309.664 88.2267H272.544V30.7046H280.099V81.1801H309.664V88.2267Z" fill="#2A2D34"/>
<path d="M380.593 89.0349C374.689 89.0349 369.802 87.0366 365.932 83.0402C362.062 79.0437 360.125 74.021 360.122 67.9723C360.122 61.8667 362.005 56.8305 365.77 52.8637C369.534 48.8969 374.53 46.9125 380.755 46.9097C387.032 46.9097 391.958 49.1232 395.533 53.5501C399.109 57.9771 400.68 63.4125 400.247 69.8568H367.191C367.204 71.5853 367.572 73.2927 368.27 74.8743C368.968 76.4558 369.983 77.8773 371.251 79.0519C372.502 80.2548 373.979 81.1995 375.596 81.8315C377.213 82.4635 378.938 82.7709 380.674 82.7356C386.195 82.7356 390.12 80.4681 392.448 75.9327H399.597C398.548 79.7252 396.22 83.0386 393.008 85.3105C389.657 87.7961 385.519 89.0377 380.593 89.0349ZM388.542 55.9423C386.311 54.0212 383.446 52.9965 380.503 53.0668C377.46 53.0363 374.496 54.0387 372.095 55.9098C369.632 57.8053 368.103 60.6129 367.507 64.3332H392.846C392.201 60.6564 390.767 57.8593 388.542 55.9423Z" fill="#2A2D34"/>
<path d="M346.683 42.2387V47.7217H358.376V54.1225H346.683V88.2385H339.696V54.1225H330.699V47.7176H339.696V41.3493C339.696 37.2878 340.833 34.2079 343.107 32.1095C345.38 30.0111 348.385 28.9578 352.12 28.9497C354.244 28.9347 356.357 29.2639 358.376 29.9245V36.1466C357.129 35.6051 355.477 35.3343 353.423 35.3343C351.093 35.3343 349.387 35.842 348.303 36.8695C347.219 37.897 346.683 39.7003 346.683 42.2387Z" fill="#2A2D34"/>
<path d="M317.216 65.007V47.7175H324.772V88.2263H317.216V69.9701V65.007ZM324.565 37.438C324.114 37.906 323.571 38.2742 322.969 38.5191C322.368 38.7639 321.722 38.8799 321.073 38.8595C320.413 38.8743 319.757 38.7561 319.144 38.5118C318.531 38.2676 317.973 37.9024 317.504 37.438C317.041 36.9778 316.673 36.4305 316.422 35.8276C316.171 35.2246 316.042 34.578 316.042 33.9249C316.042 33.2718 316.171 32.6251 316.422 32.0222C316.673 31.4192 317.041 30.8719 317.504 30.4117C317.968 29.9379 318.524 29.5638 319.138 29.3124C319.751 29.061 320.41 28.9375 321.073 28.9496C321.725 28.9311 322.374 29.0519 322.976 29.304C323.578 29.5562 324.12 29.9338 324.565 30.4117C325.452 31.3662 325.945 32.6213 325.945 33.9249C325.945 35.2284 325.452 36.4836 324.565 37.438Z" fill="#2A2D34"/>
</g>
</g>
</g>
<defs>
<clipPath id="clip0_395_3269">
<rect width="406" height="119" fill="white"/>
</clipPath>
</defs>
</svg>
