<svg width="375" height="341" viewBox="0 0 375 341" fill="none" xmlns="http://www.w3.org/2000/svg">
<path fill-rule="evenodd" clip-rule="evenodd" d="M374.156 174.044C374.156 274.002 280.402 340.974 180.444 340.974C80.4861 340.974 0.603484 265.164 0.603484 165.206C0.603484 65.2478 85.2366 0.974121 185.194 0.974121C284.955 5.72462 365.035 74.9462 374.156 174.044ZM220.257 262.422L208.539 229.467C204.634 218.482 200.728 207.558 196.822 196.695L185.105 163.74H184.189L183.64 169.416C183.396 173.078 183.03 177.899 182.542 183.879C182.053 189.738 181.504 196.024 180.894 202.737C180.284 209.45 179.734 215.919 179.246 222.144C178.758 228.247 178.331 233.434 177.965 237.706C177.72 241.856 177.598 244.358 177.598 245.212C177.598 248.996 179.49 250.888 183.274 250.888H187.668L190.78 250.705L191.147 251.437L189.499 259.676L186.203 259.493C184.128 259.371 181.687 259.249 178.88 259.127C176.195 259.005 173.815 258.943 171.74 258.943C169.909 258.943 168.078 259.005 166.247 259.127C164.416 259.249 162.708 259.432 161.121 259.676C159.534 259.92 158.253 260.103 157.276 260.225L155.995 260.408L156.91 251.986C160.816 251.498 163.623 250.278 165.332 248.325C167.041 246.25 168.139 242.771 168.627 237.889L169.726 228.002C170.214 223.486 170.763 218.421 171.374 212.807C171.984 207.07 172.533 201.272 173.021 195.414C173.632 189.555 174.181 184.002 174.669 178.753C175.279 173.505 175.707 169.111 175.951 165.571C176.317 161.91 176.5 159.652 176.5 158.797C176.5 156.6 175.951 154.83 174.852 153.488C173.754 152.145 172.045 151.108 169.726 150.375C167.407 149.521 164.416 148.972 160.755 148.728L160.205 147.812L161.67 141.404L165.332 141.587C167.895 141.709 170.763 141.892 173.937 142.137C177.11 142.259 179.673 142.32 181.626 142.32C183.457 142.32 185.288 142.259 187.119 142.137C189.072 142.015 190.719 141.892 192.062 141.77L194.076 141.587C198.226 154.891 202.132 167.097 205.793 178.204C209.577 189.311 212.872 198.892 215.68 206.948C218.609 215.004 220.867 221.289 222.454 225.805L225.017 232.396H225.932L228.312 225.805C230.021 221.289 232.34 215.004 235.27 206.948C238.199 198.77 241.555 189.189 245.339 178.204C249.123 167.219 253.212 155.135 257.606 141.953C257.606 141.831 258.338 141.831 259.803 141.953C261.389 142.076 263.098 142.198 264.929 142.32H269.689C271.52 142.32 274.022 142.259 277.195 142.137C280.369 141.892 283.176 141.709 285.617 141.587L289.462 141.221L289.828 141.953L288.913 148.728C283.664 149.338 279.942 150.436 277.745 152.023C275.548 153.488 274.449 155.746 274.449 158.797C274.449 159.896 274.51 162.337 274.632 166.12C274.876 169.904 275.182 174.542 275.548 180.035C275.914 185.527 276.28 191.447 276.646 197.794C277.134 204.019 277.562 210.243 277.928 216.468C278.416 222.693 278.843 228.369 279.209 233.495C280.064 240.574 281.04 245.273 282.139 247.592C283.237 249.789 285.251 250.888 288.18 250.888C289.279 250.888 290.378 250.827 291.476 250.705L293.307 250.522L293.673 251.254L292.025 259.493L289.096 259.31C287.143 259.188 284.763 259.066 281.956 258.943H274.632C272.679 258.943 270.605 259.005 268.408 259.127C266.211 259.249 264.136 259.432 262.183 259.676C260.23 259.92 258.643 260.103 257.423 260.225L255.592 260.408L256.324 251.986C260.108 251.498 262.854 250.522 264.563 249.057C266.272 247.592 267.126 245.517 267.126 242.832C267.126 241.734 266.943 239.11 266.577 234.96C266.333 230.688 265.966 225.561 265.478 219.581C264.99 213.6 264.502 207.375 264.014 200.906C263.525 194.437 263.037 188.396 262.549 182.781C262.061 177.166 261.633 172.589 261.267 169.05L260.901 163.74H259.986C257.056 171.796 254.127 179.913 251.198 188.09C248.268 196.146 245.278 204.263 242.227 212.44L233.439 236.974L224.651 261.14L220.257 262.422ZM129.415 237.369C129.415 234.578 127.105 232.269 124.314 232.269C121.475 232.269 119.165 234.578 119.165 237.369C119.165 240.208 121.475 242.518 124.314 242.518C127.105 242.518 129.415 240.208 129.415 237.369ZM224.858 102.473C227.649 102.473 229.959 104.782 229.959 107.573C229.959 110.412 227.649 112.722 224.858 112.722C222.019 112.722 219.709 110.412 219.709 107.573C219.709 104.782 222.019 102.473 224.858 102.473ZM103.872 191.623L102.402 199.525C104.974 199.402 107.792 199.28 110.855 199.157C114.04 199.035 117.103 198.912 120.043 198.79H127.577H135.479C138.787 198.912 142.156 198.974 145.586 198.974C149.017 199.096 152.018 199.219 154.591 199.341L156.245 190.888L155.693 190.153C152.631 190.52 149.262 190.704 145.586 190.704C141.789 190.704 139.093 189.785 137.501 187.948C135.908 185.987 135.112 182.741 135.112 178.208C135.112 170.735 135.173 162.588 135.296 153.767C135.541 144.947 135.786 136.31 136.031 127.857C136.276 119.281 136.582 111.563 136.949 104.702C137.317 97.8416 137.684 92.5736 138.052 88.8983C144.668 89.2659 149.874 89.6947 153.672 90.1847C157.47 90.6747 160.288 91.6548 162.125 93.1249C164.085 94.4725 165.494 96.739 166.352 99.9242C167.332 102.987 168.251 107.275 169.108 112.788L177.745 112.053C177.378 108.745 176.949 105.253 176.459 101.578C176.091 97.9028 175.785 94.2888 175.54 90.736C175.295 87.0607 175.111 83.8142 174.989 80.9965L173.335 79.5263L157.715 81.5478H100.748L85.4953 79.5263L83.8414 80.9965C83.7189 83.8142 83.5351 87.0607 83.2901 90.736C83.0451 94.2888 82.7388 97.9641 82.3713 101.762C82.0037 105.56 81.5749 109.235 81.0849 112.788L89.7219 112.053C90.4569 106.662 91.2532 102.436 92.1108 99.3729C92.9684 96.3102 94.3772 94.105 96.3374 92.7574C98.2976 91.2873 101.299 90.3685 105.342 90.0009C109.507 89.5109 115.143 89.1434 122.248 88.8983V169.02C122.248 175.513 121.881 180.291 121.146 183.354C120.533 186.294 118.94 188.315 116.368 189.418C113.795 190.398 109.63 191.133 103.872 191.623Z" fill="#2A2D34"/>
</svg>
